<svg width="522" height="386" viewBox="0 0 522 386" fill="none" xmlns="http://www.w3.org/2000/svg">
<path d="M352.006 19H353.653L356.04 10.6193H356.21L358.597 19H360.244L363.568 8.09091H361.807L359.449 16.4148H359.335L357.034 8.09091H355.244L352.915 16.4432H352.801L350.443 8.09091H348.682L352.006 19ZM369.845 19.2273C372.799 19.2273 374.788 16.983 374.788 13.6023C374.788 10.1932 372.799 7.94886 369.845 7.94886C366.89 7.94886 364.902 10.1932 364.902 13.6023C364.902 16.983 366.89 19.2273 369.845 19.2273ZM369.845 17.7216C367.6 17.7216 366.578 15.7898 366.578 13.6023C366.578 11.4148 367.6 9.45455 369.845 9.45455C372.089 9.45455 373.112 11.4148 373.112 13.6023C373.112 15.7898 372.089 17.7216 369.845 17.7216ZM377.347 19H379.023V12.0966C379.023 10.6193 380.188 9.53977 381.778 9.53977C382.226 9.53977 382.688 9.625 382.801 9.65341V7.94886C382.609 7.93466 382.169 7.92045 381.92 7.92045C380.614 7.92045 379.477 8.65909 379.08 9.73864H378.966V8.09091H377.347V19ZM388.575 19.2273C390.678 19.2273 391.388 17.9205 391.757 17.3239H391.956V19H393.575V4.45455H391.899V9.82386H391.757C391.388 9.25568 390.734 7.94886 388.604 7.94886C385.848 7.94886 383.945 10.1364 383.945 13.5739C383.945 17.0398 385.848 19.2273 388.575 19.2273ZM388.803 17.7216C386.7 17.7216 385.621 15.875 385.621 13.5455C385.621 11.2443 386.672 9.45455 388.803 9.45455C390.848 9.45455 391.928 11.1023 391.928 13.5455C391.928 16.017 390.82 17.7216 388.803 17.7216ZM396.878 19H398.554V12.1818C398.554 10.5838 399.719 9.45455 401.026 9.45455C402.297 9.45455 403.185 10.2855 403.185 11.5284V19H404.889V11.8977C404.889 10.4915 405.77 9.45455 407.304 9.45455C408.497 9.45455 409.52 10.0866 409.52 11.6989V19H411.196V11.6989C411.196 9.13494 409.818 7.94886 407.872 7.94886C406.31 7.94886 405.166 8.66619 404.605 9.79545H404.491C403.952 8.63068 403 7.94886 401.565 7.94886C400.145 7.94886 399.094 8.63068 398.639 9.79545H398.497V8.09091H396.878V19ZM417.471 19.2557C419.374 19.2557 420.369 18.233 420.71 17.5227H420.795V19H422.471V11.8125C422.471 8.34659 419.829 7.94886 418.437 7.94886C416.789 7.94886 414.914 8.51705 414.062 10.5057L415.653 11.0739C416.022 10.2784 416.896 9.42614 418.494 9.42614C420.035 9.42614 420.795 10.2429 420.795 11.642V11.6989C420.795 12.5085 419.971 12.4375 417.982 12.6932C415.958 12.956 413.749 13.4034 413.749 15.9034C413.749 18.0341 415.397 19.2557 417.471 19.2557ZM417.727 17.75C416.391 17.75 415.425 17.1534 415.425 15.9886C415.425 14.7102 416.59 14.3125 417.897 14.142C418.607 14.0568 420.511 13.858 420.795 13.517V15.0511C420.795 16.4148 419.715 17.75 417.727 17.75ZM425.53 19H427.206V12.0966C427.206 10.6193 428.371 9.53977 429.962 9.53977C430.409 9.53977 430.871 9.625 430.985 9.65341V7.94886C430.793 7.93466 430.353 7.92045 430.104 7.92045C428.797 7.92045 427.661 8.65909 427.263 9.73864H427.15V8.09091H425.53V19ZM432.972 19H434.648V14.9162L435.82 13.8295L439.903 19H442.034L437.084 12.75L441.693 8.09091H439.619L434.847 12.9489H434.648V4.45455H432.972V19Z" fill="#363A68"/>
<path d="M0.790039 30.03H215.63" stroke="#38ADC2" stroke-linecap="round" stroke-linejoin="round"/>
<path d="M258.42 30.03H521.21" stroke="#38ADC2" stroke-linecap="round" stroke-linejoin="round"/>
<path d="M0.790039 30.03V39.71" stroke="#38ADC2" stroke-linecap="round" stroke-linejoin="round"/>
<path d="M215.63 30.03V39.71" stroke="#38ADC2" stroke-linecap="round" stroke-linejoin="round"/>
<path d="M258.42 30.03V39.71" stroke="#38ADC2" stroke-linecap="round" stroke-linejoin="round"/>
<path d="M521.21 30.03V39.71" stroke="#38ADC2" stroke-linecap="round" stroke-linejoin="round"/>
<path d="M0.799805 356.07H521.21" stroke="#38ADC2" stroke-linecap="round" stroke-linejoin="round"/>
<path d="M0.799805 346.39V356.07" stroke="#38ADC2" stroke-linecap="round" stroke-linejoin="round"/>
<path d="M521.21 346.39V356.07" stroke="#38ADC2" stroke-linecap="round" stroke-linejoin="round"/>
<path d="M89.5341 19H91.2102V8.09091H89.5341V19ZM90.3864 6.27273C91.0398 6.27273 91.5795 5.76136 91.5795 5.13636C91.5795 4.51136 91.0398 4 90.3864 4C89.733 4 89.1932 4.51136 89.1932 5.13636C89.1932 5.76136 89.733 6.27273 90.3864 6.27273ZM98.712 19.2273C101.127 19.2273 102.718 17.75 103.002 15.8182H101.326C101.013 17.0114 100.019 17.7216 98.712 17.7216C96.7234 17.7216 95.445 16.0739 95.445 13.5455C95.445 11.0739 96.7518 9.45455 98.712 9.45455C100.189 9.45455 101.07 10.3636 101.326 11.358H103.002C102.718 9.3125 100.985 7.94886 98.6836 7.94886C95.729 7.94886 93.7688 10.2784 93.7688 13.6023C93.7688 16.8693 95.6438 19.2273 98.712 19.2273ZM109.884 19.2273C112.838 19.2273 114.827 16.983 114.827 13.6023C114.827 10.1932 112.838 7.94886 109.884 7.94886C106.929 7.94886 104.941 10.1932 104.941 13.6023C104.941 16.983 106.929 19.2273 109.884 19.2273ZM109.884 17.7216C107.64 17.7216 106.617 15.7898 106.617 13.6023C106.617 11.4148 107.64 9.45455 109.884 9.45455C112.128 9.45455 113.151 11.4148 113.151 13.6023C113.151 15.7898 112.128 17.7216 109.884 17.7216ZM119.062 12.4375C119.062 10.5341 120.241 9.45455 121.846 9.45455C123.401 9.45455 124.346 10.4702 124.346 12.1818V19H126.022V12.0682C126.022 9.28409 124.538 7.94886 122.329 7.94886C120.681 7.94886 119.658 8.6875 119.147 9.79545H119.005V8.09091H117.386V19H119.062V12.4375Z" fill="#363A68"/>
<path d="M243.21 366.455H241.534V381H243.21V366.455ZM250.712 381.227C253.667 381.227 255.655 378.983 255.655 375.602C255.655 372.193 253.667 369.949 250.712 369.949C247.757 369.949 245.769 372.193 245.769 375.602C245.769 378.983 247.757 381.227 250.712 381.227ZM250.712 379.722C248.468 379.722 247.445 377.79 247.445 375.602C247.445 373.415 248.468 371.455 250.712 371.455C252.956 371.455 253.979 373.415 253.979 375.602C253.979 377.79 252.956 379.722 250.712 379.722ZM262.617 385.318C265.231 385.318 267.333 384.125 267.333 381.312V370.091H265.714V371.824H265.543C265.174 371.256 264.492 369.949 262.362 369.949C259.606 369.949 257.702 372.136 257.702 375.489C257.702 378.898 259.691 380.83 262.333 380.83C264.464 380.83 265.146 379.58 265.515 378.983H265.657V381.199C265.657 383.017 264.379 383.841 262.617 383.841C260.636 383.841 259.94 382.797 259.492 382.193L258.157 383.131C258.839 384.274 260.181 385.318 262.617 385.318ZM262.56 379.324C260.458 379.324 259.379 377.733 259.379 375.46C259.379 373.244 260.43 371.455 262.56 371.455C264.606 371.455 265.685 373.102 265.685 375.46C265.685 377.875 264.577 379.324 262.56 379.324ZM274.833 381.227C277.788 381.227 279.776 378.983 279.776 375.602C279.776 372.193 277.788 369.949 274.833 369.949C271.879 369.949 269.89 372.193 269.89 375.602C269.89 378.983 271.879 381.227 274.833 381.227ZM274.833 379.722C272.589 379.722 271.566 377.79 271.566 375.602C271.566 373.415 272.589 371.455 274.833 371.455C277.077 371.455 278.1 373.415 278.1 375.602C278.1 377.79 277.077 379.722 274.833 379.722Z" fill="#363A68"/>
<path d="M182.048 117.804C162.016 97.7947 135.384 86.7759 107.059 86.7759C78.7348 86.7759 52.1027 97.7947 32.0709 117.804C12.039 137.813 1.00769 164.415 1.00769 192.707C1.00769 216.236 8.65425 238.565 22.7319 256.93L5.2233 274.419C-0.407766 280.044 -0.407766 289.157 5.2233 294.781C10.8544 300.406 19.9779 300.406 25.609 294.781L43.1637 277.247C61.4724 291.124 83.6889 298.639 107.075 298.639C135.399 298.639 162.032 287.62 182.063 267.611C202.095 247.602 213.126 221 213.126 192.707C213.111 164.415 202.08 137.813 182.048 117.804ZM128.461 249.108C128.445 249.123 128.445 249.123 128.43 249.139C117.106 260.434 98.7051 260.434 87.3814 249.139C76.0578 237.828 76.0578 219.448 87.3814 208.137C93.0433 202.481 100.474 199.654 107.906 199.654C115.337 199.654 122.768 202.481 128.43 208.137C139.738 219.432 139.753 237.797 128.461 249.108ZM68.8882 189.649C50.6103 207.906 47.8717 235.891 60.6416 257.084C57.026 254.855 53.6566 252.197 50.5795 249.123C29.1169 227.685 29.1169 192.8 50.5795 171.361C61.3186 160.634 75.4116 155.286 89.5046 155.286C103.598 155.286 117.706 160.65 128.43 171.361C131.507 174.435 134.153 177.816 136.384 181.412C115.183 168.656 87.1661 171.392 68.8882 189.649ZM163.555 249.139C161.631 251.06 159.631 252.858 157.57 254.548C166.124 241.485 170.74 226.225 170.74 210.242C170.74 188.573 162.293 168.195 146.954 152.874C119.322 125.303 76.6116 121.784 45.1331 142.3C46.8409 140.226 48.641 138.213 50.5795 136.292C65.6726 121.216 85.7352 112.917 107.059 112.917C128.384 112.917 148.462 121.216 163.555 136.292C178.648 151.367 186.956 171.392 186.956 192.707C186.956 214.023 178.632 234.063 163.555 249.139Z" fill="#526BCE"/>
<path d="M388.735 233.54H353.102V232.725L366.257 221.768C398.258 195.151 406.413 181.32 406.413 165.091C406.413 138.95 384.965 121.83 351.317 121.83C324.301 121.83 305.115 134.217 299.299 155.179C297.314 162.355 302.653 169.471 310.115 169.471H324.177C329.024 169.471 333.224 166.336 334.84 161.787C337.301 154.871 343.348 151.121 351.317 151.121C361.81 151.121 369.272 157.622 369.272 168.364C369.272 178.292 362.903 184.716 352.548 193.276L312.654 226.24C304.761 232.756 300.192 242.453 300.192 252.688C300.192 258.897 305.223 263.922 311.438 263.922H396.674C402.889 263.922 407.92 258.897 407.92 252.688C407.92 242.115 399.32 233.54 388.735 233.54Z" fill="#363A68"/>
<path d="M278.268 123.751C266.667 123.751 256.374 133.141 256.374 144.744V253.442C256.374 259.235 261.067 263.923 266.867 263.923H277.744C283.56 263.923 288.268 259.22 288.268 253.411V224.058V184.178V162.724V133.725C288.253 128.223 283.775 123.751 278.268 123.751Z" fill="#363A68"/>
<path d="M469.031 123.751H450.107H450.092H439.23C427.629 123.751 418.213 133.141 418.213 144.744V253.442C418.213 259.235 422.906 263.923 428.706 263.923H439.584C445.399 263.923 450.107 259.22 450.107 253.411V230.052V224.058C450.107 223.09 450.892 222.306 451.861 222.306H467.662C499.664 222.306 521.111 203.48 521.111 173.298C521.111 143.468 500.218 123.751 469.031 123.751ZM465.462 192.753H462.262H459.908H452.554C451.23 192.753 450.153 191.708 450.107 190.387V162.724C450.107 157.991 454.492 154.149 459.908 154.149H465.447C480.709 154.149 489.879 161.264 489.879 173.313C489.879 185.285 480.724 192.753 465.462 192.753Z" fill="#363A68"/>
</svg>
