<svg width="808" height="555" viewBox="0 0 808 555" fill="none" xmlns="http://www.w3.org/2000/svg">
<path d="M4.00568 472.436H5.65341L8.03977 464.055H8.21023L10.5966 472.436H12.2443L15.5682 461.527H13.8068L11.4489 469.851H11.3352L9.03409 461.527H7.24432L4.91477 469.879H4.80114L2.44318 461.527H0.681818L4.00568 472.436ZM21.8448 472.663C24.7994 472.663 26.788 470.419 26.788 467.038C26.788 463.629 24.7994 461.385 21.8448 461.385C18.8903 461.385 16.9016 463.629 16.9016 467.038C16.9016 470.419 18.8903 472.663 21.8448 472.663ZM21.8448 471.157C19.6005 471.157 18.5778 469.226 18.5778 467.038C18.5778 464.851 19.6005 462.89 21.8448 462.89C24.0891 462.89 25.1119 464.851 25.1119 467.038C25.1119 469.226 24.0891 471.157 21.8448 471.157ZM29.3466 472.436H31.0227V465.532C31.0227 464.055 32.1875 462.976 33.7784 462.976C34.2259 462.976 34.6875 463.061 34.8011 463.089V461.385C34.6094 461.37 34.169 461.356 33.9205 461.356C32.6136 461.356 31.4773 462.095 31.0795 463.174H30.9659V461.527H29.3466V472.436ZM40.5753 472.663C42.6776 472.663 43.3878 471.356 43.7571 470.76H43.956V472.436H45.5753V457.89H43.8991V463.26H43.7571C43.3878 462.691 42.7344 461.385 40.6037 461.385C37.848 461.385 35.9446 463.572 35.9446 467.01C35.9446 470.476 37.848 472.663 40.5753 472.663ZM40.8026 471.157C38.7003 471.157 37.6207 469.311 37.6207 466.981C37.6207 464.68 38.6719 462.89 40.8026 462.89C42.848 462.89 43.9276 464.538 43.9276 466.981C43.9276 469.453 42.8196 471.157 40.8026 471.157ZM48.8778 472.436H50.554V465.618C50.554 464.02 51.7188 462.89 53.0256 462.89C54.2969 462.89 55.1847 463.721 55.1847 464.964V472.436H56.8892V465.334C56.8892 463.927 57.7699 462.89 59.304 462.89C60.4972 462.89 61.5199 463.522 61.5199 465.135V472.436H63.196V465.135C63.196 462.571 61.8182 461.385 59.8722 461.385C58.3097 461.385 57.1662 462.102 56.6051 463.231H56.4915C55.9517 462.066 55 461.385 53.5653 461.385C52.1449 461.385 51.0938 462.066 50.6392 463.231H50.4972V461.527H48.8778V472.436ZM69.4709 472.691C71.3743 472.691 72.3686 471.669 72.7095 470.959H72.7947V472.436H74.4709V465.248C74.4709 461.782 71.8288 461.385 70.4368 461.385C68.7891 461.385 66.9141 461.953 66.0618 463.941L67.6527 464.51C68.022 463.714 68.8956 462.862 70.4936 462.862C72.0348 462.862 72.7947 463.679 72.7947 465.078V465.135C72.7947 465.944 71.9709 465.873 69.9822 466.129C67.9581 466.392 65.7493 466.839 65.7493 469.339C65.7493 471.47 67.397 472.691 69.4709 472.691ZM69.7266 471.186C68.3913 471.186 67.4254 470.589 67.4254 469.424C67.4254 468.146 68.5902 467.748 69.897 467.578C70.6072 467.493 72.5107 467.294 72.7947 466.953V468.487C72.7947 469.851 71.7152 471.186 69.7266 471.186ZM77.5302 472.436H79.2063V465.532C79.2063 464.055 80.3711 462.976 81.962 462.976C82.4094 462.976 82.8711 463.061 82.9847 463.089V461.385C82.793 461.37 82.3526 461.356 82.104 461.356C80.7972 461.356 79.6609 462.095 79.2631 463.174H79.1495V461.527H77.5302V472.436ZM84.9716 472.436H86.6477V468.352L87.8196 467.265L91.9034 472.436H94.0341L89.0838 466.186L93.6932 461.527H91.6193L86.8466 466.385H86.6477V457.89H84.9716V472.436Z" fill="#363A68"/>
<path d="M154.018 343.253L154.018 0.860473" stroke="#38ADC2" stroke-linecap="round" stroke-linejoin="round"/>
<path d="M155.202 554.139L155.202 383.535" stroke="#38ADC2" stroke-linecap="round" stroke-linejoin="round"/>
<path d="M154.018 343.253L164.68 343.253" stroke="#38ADC2" stroke-linecap="round" stroke-linejoin="round"/>
<path d="M154.018 0.860596L164.68 0.860595" stroke="#38ADC2" stroke-linecap="round" stroke-linejoin="round"/>
<path d="M155.202 554.139L167.05 554.139" stroke="#38ADC2" stroke-linecap="round" stroke-linejoin="round"/>
<path d="M155.202 383.535L167.05 383.535" stroke="#38ADC2" stroke-linecap="round" stroke-linejoin="round"/>
<path d="M725.067 554.139L725.067 0.860616" stroke="#38ADC2" stroke-linecap="round" stroke-linejoin="round"/>
<path d="M713.22 554.139L725.067 554.139" stroke="#38ADC2" stroke-linecap="round" stroke-linejoin="round"/>
<path d="M713.22 0.86084L725.067 0.860839" stroke="#38ADC2" stroke-linecap="round" stroke-linejoin="round"/>
<path d="M65.7594 176.248H67.4356V165.338H65.7594V176.248ZM66.6117 163.52C67.2651 163.52 67.8049 163.009 67.8049 162.384C67.8049 161.759 67.2651 161.248 66.6117 161.248C65.9583 161.248 65.4185 161.759 65.4185 162.384C65.4185 163.009 65.9583 163.52 66.6117 163.52ZM74.9373 176.475C77.3521 176.475 78.943 174.998 79.2271 173.066H77.551C77.2385 174.259 76.2442 174.969 74.9373 174.969C72.9487 174.969 71.6703 173.321 71.6703 170.793C71.6703 168.321 72.9771 166.702 74.9373 166.702C76.4146 166.702 77.2953 167.611 77.551 168.606H79.2271C78.943 166.56 77.2101 165.196 74.9089 165.196C71.9544 165.196 69.9942 167.526 69.9942 170.85C69.9942 174.117 71.8692 176.475 74.9373 176.475ZM86.1092 176.475C89.0638 176.475 91.0524 174.231 91.0524 170.85C91.0524 167.441 89.0638 165.196 86.1092 165.196C83.1547 165.196 81.166 167.441 81.166 170.85C81.166 174.231 83.1547 176.475 86.1092 176.475ZM86.1092 174.969C83.8649 174.969 82.8422 173.037 82.8422 170.85C82.8422 168.662 83.8649 166.702 86.1092 166.702C88.3535 166.702 89.3763 168.662 89.3763 170.85C89.3763 173.037 88.3535 174.969 86.1092 174.969ZM95.2871 169.685C95.2871 167.782 96.4661 166.702 98.0712 166.702C99.6266 166.702 100.571 167.718 100.571 169.429V176.248H102.247V169.316C102.247 166.532 100.763 165.196 98.5542 165.196C96.9064 165.196 95.8837 165.935 95.3724 167.043H95.2303V165.338H93.611V176.248H95.2871V169.685Z" fill="#363A68"/>
<path d="M762.636 267.145H760.959V281.69H762.636V267.145ZM770.137 281.918C773.092 281.918 775.08 279.673 775.08 276.293C775.08 272.884 773.092 270.639 770.137 270.639C767.183 270.639 765.194 272.884 765.194 276.293C765.194 279.673 767.183 281.918 770.137 281.918ZM770.137 280.412C767.893 280.412 766.87 278.48 766.87 276.293C766.87 274.105 767.893 272.145 770.137 272.145C772.382 272.145 773.404 274.105 773.404 276.293C773.404 278.48 772.382 280.412 770.137 280.412ZM782.042 286.009C784.656 286.009 786.758 284.815 786.758 282.003V270.781H785.139V272.514H784.969C784.599 271.946 783.917 270.639 781.787 270.639C779.031 270.639 777.128 272.827 777.128 276.179C777.128 279.588 779.116 281.52 781.758 281.52C783.889 281.52 784.571 280.27 784.94 279.673H785.082V281.889C785.082 283.707 783.804 284.531 782.042 284.531C780.061 284.531 779.365 283.487 778.917 282.884L777.582 283.821C778.264 284.965 779.606 286.009 782.042 286.009ZM781.986 280.014C779.883 280.014 778.804 278.423 778.804 276.151C778.804 273.935 779.855 272.145 781.986 272.145C784.031 272.145 785.111 273.793 785.111 276.151C785.111 278.565 784.003 280.014 781.986 280.014ZM794.258 281.918C797.213 281.918 799.202 279.673 799.202 276.293C799.202 272.884 797.213 270.639 794.258 270.639C791.304 270.639 789.315 272.884 789.315 276.293C789.315 279.673 791.304 281.918 794.258 281.918ZM794.258 280.412C792.014 280.412 790.991 278.48 790.991 276.293C790.991 274.105 792.014 272.145 794.258 272.145C796.503 272.145 797.525 274.105 797.525 276.293C797.525 278.48 796.503 280.412 794.258 280.412Z" fill="#363A68"/>
<path d="M334.806 539.998C334.806 527.565 340.349 515.778 349.934 507.847L398.385 467.764C410.95 457.357 418.695 449.536 418.695 437.475C418.695 424.406 409.625 416.508 396.896 416.508C387.212 416.508 379.861 421.065 376.882 429.467C374.91 435.01 369.816 438.811 363.934 438.811H346.867C337.807 438.811 331.311 430.157 333.721 421.427C340.776 395.947 364.098 380.884 396.907 380.884C437.767 380.884 463.816 401.687 463.816 433.477C463.816 453.206 453.914 470.01 415.047 502.38L399.043 515.701V516.698H442.324C455.195 516.698 465.624 527.126 465.624 539.998C465.624 547.535 459.511 553.647 451.975 553.647H348.455C340.918 553.647 334.806 547.535 334.806 539.998Z" fill="#363A68"/>
<path d="M320.291 430.586V395.334C320.291 388.641 314.858 383.208 308.164 383.208C294.066 383.208 281.567 394.633 281.567 408.732V540.897C281.567 547.941 287.274 553.648 294.318 553.648H307.529C314.584 553.648 320.302 547.93 320.302 540.875V505.186V456.679V430.586H320.291Z" fill="#363A68"/>
<path d="M516.857 512.461H516.868V383.21H516.857V512.461Z" fill="#363A68"/>
<path d="M539.851 383.208H503.657C489.559 383.208 478.133 394.633 478.133 408.732V540.897C478.133 547.941 483.841 553.648 490.884 553.648H504.095C511.15 553.648 516.868 547.93 516.868 540.875V505.186C516.868 504.003 517.821 503.05 519.004 503.05H538.197C577.063 503.05 603.113 480.166 603.113 443.457C603.102 407.176 577.72 383.208 539.851 383.208ZM535.513 467.097H531.635H528.787H519.848C518.194 467.097 516.857 465.761 516.857 464.106V446.612C516.857 446.579 516.868 446.536 516.868 446.503V430.586C516.868 424.835 522.203 420.168 528.776 420.168H535.502C554.048 420.168 565.167 428.822 565.167 443.468C565.177 458.027 554.048 467.097 535.513 467.097Z" fill="#363A68"/>
<path d="M564.722 50.943C532.388 18.6463 489.402 0.86084 443.683 0.86084C397.964 0.86084 354.977 18.6463 322.644 50.943C290.311 83.2396 272.505 126.178 272.505 171.845C272.505 209.822 284.847 245.864 307.57 275.506L279.309 303.735C270.22 312.814 270.22 327.523 279.309 336.602C288.399 345.681 303.125 345.681 312.214 336.602L340.549 308.299C370.101 330.699 405.961 342.828 443.708 342.828C489.426 342.828 532.413 325.043 564.747 292.746C597.08 260.45 614.886 217.511 614.886 171.845C614.861 126.178 597.055 83.2396 564.722 50.943ZM478.226 262.881C478.202 262.905 478.202 262.905 478.177 262.93C459.899 281.162 430.198 281.162 411.921 262.93C393.643 244.673 393.643 215.006 411.921 196.749C421.06 187.621 433.054 183.057 445.049 183.057C457.043 183.057 469.038 187.621 478.177 196.749C496.429 214.981 496.454 244.624 478.226 262.881ZM382.071 166.908C352.569 196.377 348.148 241.548 368.76 275.755C362.924 272.158 357.486 267.866 352.519 262.905C317.876 228.302 317.876 171.993 352.519 137.39C369.853 120.076 392.6 111.443 415.348 111.443C438.095 111.443 460.868 120.101 478.177 137.39C483.143 142.351 487.415 147.808 491.016 153.613C456.795 133.024 411.573 137.439 382.071 166.908ZM534.872 262.93C531.768 266.031 528.539 268.933 525.212 271.662C539.019 250.577 546.469 225.945 546.469 200.148C546.469 165.172 532.835 132.28 508.076 107.549C463.475 63.048 394.537 57.3676 343.728 90.4828C346.484 87.1341 349.39 83.8846 352.519 80.7839C376.881 56.4498 409.264 43.0549 443.683 43.0549C478.102 43.0549 510.51 56.4498 534.872 80.7839C559.234 105.118 572.644 137.439 572.644 171.845C572.644 206.25 559.209 238.596 534.872 262.93Z" fill="#526BCE"/>
</svg>
