<svg width="340" height="140" viewBox="0 0 340 140" fill="none" xmlns="http://www.w3.org/2000/svg">
<path d="M118.352 20.855C105.257 7.77487 87.8477 0.571777 69.3317 0.571777C50.8158 0.571777 33.4062 7.77487 20.3112 20.855C7.21629 33.935 0.00502883 51.3249 0.00502883 69.8199C0.00502883 85.2005 5.00363 99.7976 14.2063 111.803L2.7608 123.235C-0.920266 126.912 -0.920266 132.87 2.7608 136.546C6.44186 140.223 12.406 140.223 16.0871 136.546L27.5627 125.084C39.5312 134.155 54.0543 139.068 69.3418 139.068C87.8577 139.068 105.267 131.865 118.362 118.785C131.457 105.705 138.668 88.3148 138.668 69.8199C138.658 51.3249 131.447 33.935 118.352 20.855ZM83.3218 106.689C83.3117 106.699 83.3117 106.699 83.3017 106.709C75.8993 114.093 63.8705 114.093 56.4681 106.709C49.0658 99.3154 49.0658 87.3002 56.4681 79.9062C60.1693 76.2092 65.0271 74.3607 69.8849 74.3607C74.7427 74.3607 79.6005 76.2092 83.3017 79.9062C90.694 87.2901 90.704 99.2953 83.3218 106.689ZM44.3789 67.8207C32.4306 79.7555 30.6403 98.0496 38.9881 111.903C36.6246 110.447 34.422 108.709 32.4105 106.699C18.3802 92.6849 18.3802 69.8802 32.4105 55.8658C39.4306 48.8536 48.6433 45.3575 57.8561 45.3575C67.0688 45.3575 76.2915 48.8636 83.3017 55.8658C85.3132 57.875 87.0431 60.0852 88.5014 62.436C74.6421 54.0977 56.3273 55.8859 44.3789 67.8207ZM106.263 106.709C105.006 107.965 103.698 109.141 102.351 110.246C107.943 101.706 110.96 91.7305 110.96 81.2825C110.96 67.1175 105.438 53.7963 95.4109 43.7803C77.3476 25.7575 49.4278 23.4569 28.8501 36.8685C29.9665 35.5123 31.1432 34.1962 32.4105 32.9405C42.2769 23.0852 55.392 17.6603 69.3317 17.6603C83.2715 17.6603 96.3966 23.0852 106.263 32.9405C116.13 42.7957 121.561 55.8859 121.561 69.8199C121.561 83.7539 116.119 96.8541 106.263 106.709Z" fill="white"/>
<path d="M253.465 96.5123H230.172V95.9798L238.771 88.8169C259.691 71.417 265.022 62.3755 265.022 51.7667C265.022 34.6782 251.001 23.4868 229.005 23.4868C211.344 23.4868 198.803 31.584 195.001 45.287C193.703 49.9785 197.193 54.6299 202.071 54.6299H211.264C214.432 54.6299 217.178 52.5805 218.234 49.6068C219.843 45.086 223.796 42.6348 229.005 42.6348C235.865 42.6348 240.743 46.8843 240.743 53.9066C240.743 60.3964 236.579 64.5957 229.81 70.1914L203.731 91.7403C198.571 95.9999 195.584 102.339 195.584 109.03C195.584 113.088 198.873 116.374 202.936 116.374H258.655C262.718 116.374 266.007 113.088 266.007 109.03C266.007 102.118 260.385 96.5123 253.465 96.5123Z" fill="white"/>
<path d="M181.252 24.7427C173.668 24.7427 166.94 30.8809 166.94 38.4657V109.522C166.94 113.31 170.008 116.374 173.799 116.374H180.91C184.712 116.374 187.789 113.299 187.789 109.502V90.3139V64.2441V50.2197V31.2626C187.779 27.6661 184.852 24.7427 181.252 24.7427Z" fill="white"/>
<path d="M305.955 24.7427H293.585H293.575H286.474C278.891 24.7427 272.735 30.8809 272.735 38.4657V109.522C272.735 113.31 275.803 116.374 279.595 116.374H286.705C290.507 116.374 293.585 113.299 293.585 109.502V94.2319V90.3139C293.585 89.681 294.098 89.1686 294.731 89.1686H305.06C325.98 89.1686 340 76.8621 340 57.1315C340 37.6319 326.342 24.7427 305.955 24.7427ZM303.622 69.8499H301.53H299.991H295.184C294.319 69.8499 293.615 69.1667 293.585 68.3028V50.2197C293.585 47.1255 296.451 44.614 299.991 44.614H303.612C313.589 44.614 319.583 49.2653 319.583 57.1415C319.583 64.9675 313.599 69.8499 303.622 69.8499Z" fill="white"/>
</svg>
